<svg width="64" height="64" viewBox="0 0 64 64" fill="none" xmlns="http://www.w3.org/2000/svg">
<mask id="mask0_3_47" style="mask-type:alpha" maskUnits="userSpaceOnUse" x="0" y="0" width="64" height="64">
<rect width="64" height="64" fill="#D9D9D9"/>
</mask>
<g mask="url(#mask0_3_47)">
<path d="M18.8095 53.4761V24.0761C18.8095 22.6094 19.3428 21.365 20.4095 20.3428C21.4762 19.3206 22.7428 18.8094 24.2095 18.8094H53.4762C54.9428 18.8094 56.1984 19.3317 57.2428 20.3761C58.2873 21.4206 58.8095 22.6761 58.8095 24.1428V45.4761L45.4762 58.8094H24.1428C22.6762 58.8094 21.4206 58.2872 20.3762 57.2428C19.3317 56.1983 18.8095 54.9428 18.8095 53.4761ZM5.54284 16.8094C5.27617 15.3428 5.56506 14.0206 6.40951 12.8428C7.25395 11.665 8.40951 10.9428 9.87617 10.6761L38.8095 5.54278C40.2762 5.27611 41.5984 5.565 42.7762 6.40944C43.9539 7.25389 44.6762 8.40944 44.9428 9.87611L45.6095 13.4761H40.1428L39.6762 10.8094L10.8095 15.9428L13.4762 31.0094V49.6094C12.7651 49.2094 12.154 48.6761 11.6428 48.0094C11.1317 47.3428 10.8095 46.5872 10.6762 45.7428L5.54284 16.8094ZM24.1428 24.1428V53.4761H42.8095V42.8094H53.4762V24.1428H24.1428Z" fill="#3B62E1"/>
</g>
</svg>
